HIERARCHY
ROOT Hips
{
  OFFSET 0.0 0.0 0.0
  CHANNELS 6 XPOSITION YPOSITION ZPOSITION ZROTATION XROTATION YROTATION 
  JOINT RightUpLeg
  {
    OFFSET -0.089458 -0.0866707 0.00101652
    CHANNELS 3 ZROTATION XROTATION YROTATION 
    JOINT RightLeg
    {
      OFFSET 0.0 -0.444227 0.013727
      CHANNELS 3 ZROTATION XROTATION YROTATION 
      JOINT RightFoot
      {
        OFFSET 0.00253549 -0.420924 -0.0146059
        CHANNELS 3 ZROTATION XROTATION YROTATION 
        End Site
        {
          OFFSET 0.0004 -0.0441509 0.084991
        }
      }
    }
  }
  JOINT Spine
  {
    OFFSET 0.0 0.118905 0.0
    CHANNELS 3 ZROTATION XROTATION YROTATION 
    JOINT Spine1
    {
      OFFSET 0.0 0.256574 0.00127663
      CHANNELS 3 ZROTATION XROTATION YROTATION 
      End Site
      {
        OFFSET -0.0029 0.2150836 0.02525291
      }
      JOINT RightArm
      {
        OFFSET -0.162727 -0.05365632 0.00102123
        CHANNELS 3 ZROTATION XROTATION YROTATION 
        JOINT RightForeArm
        {
          OFFSET -0.26364 0.00099144 -0.0142434
          CHANNELS 3 ZROTATION XROTATION YROTATION 
          End Site
          {
            OFFSET -0.220324 0.00085362 0.0102216
          }
        }
      }
      JOINT LeftArm
      {
        OFFSET 0.162727 -0.0536563199 0.00102123
        CHANNELS 3 ZROTATION XROTATION YROTATION 
        JOINT LeftForeArm
        {
          OFFSET 0.262597 0.00099144 -0.0142434
          CHANNELS 3 ZROTATION XROTATION YROTATION 
          End Site
          {
            OFFSET 0.220902 0.00085362 0.0102216
          }
        }
      }
    }
  }
  JOINT LeftUpLeg
  {
    OFFSET 0.089458 -0.0866707 0.00101652
    CHANNELS 3 ZROTATION XROTATION YROTATION 
    JOINT LeftLeg
    {
      OFFSET 0.0 -0.444227 0.013727
      CHANNELS 3 ZROTATION XROTATION YROTATION 
      JOINT LeftFoot
      {
        OFFSET -0.00253549 -0.420924 -0.0146059
        CHANNELS 3 ZROTATION XROTATION YROTATION 
        End Site
        {
          OFFSET -0.0004 -0.0441509 0.084991
        }
      }
    }
  }
}
MOTION
Frames: 10
Frame Time: 0.033333
0.897631 0.888386241613 0.0398181 1.46178001069 2.72482008612 -92.1538002064 4.00284986545 -44.4926991969 8.55979028957 -0.899314039264 35.3711010887 -12.2400003748 15.4329439108 -45.1564091691 19.2540659212 -2.01925001891 30.0955005398 -1.97887997238 0.216200006543 4.64165013776 -2.24337008336 69.8987762677 -21.3694352713 -14.1648065933 -1.7746499524 23.2391995566 90.0429985453 -61.1664272252 -11.2801692586 0.863172520158 -14.7704001934 25.4328001859 -93.9975004898 -1.16607999063 -44.7924010675 -7.45674974333 1.20485999046 38.5061988988 19.0150998002 -2.68707923553 -45.2719281586 18.0519304292 
0.862032 0.826385241613 0.0367544 -1.60994004728 2.17528995937 -91.1901014957 2.62409998218 -49.8154007303 6.0196898948 -0.958544052365 49.7654993682 -10.246600274 12.2122706605 -40.4244302065 18.0404984 -2.94114007454 34.7483005345 -1.72551004969 1.1916700414 3.84795013969 -2.6807399662 70.2208606682 -21.0974486008 -12.9694321347 -4.33959014436 23.7367993282 84.5174984502 -61.2961120269 -11.319123535 -3.33290414396 -18.138200841 23.5452996069 -84.1428011025 -4.00235979937 -50.4295986612 -7.94043983469 1.5000799763 54.2514993132 17.4934992853 3.66956267405 -39.9799044198 18.073155242 
0.82725 0.766443241613 0.0351517 -4.70684002452 1.97221007921 -90.4976022761 -0.0758224969354 -54.9707011573 0.986089991844 -1.51082002188 66.3050995567 -7.0807098366 9.42007566742 -38.9818464425 17.7205877072 -1.85028992186 38.977099461 -1.76613996358 0.878806983251 3.69836003225 -2.70643001522 72.3966857302 -21.4086695854 -7.82370421781 -4.51585982448 24.9877997011 73.396201953 -62.6996612599 -10.8227771031 -12.2115142171 -18.0813992803 19.8043008381 -70.7211993457 -5.0014299254 -55.1805997007 -6.76693009235 2.56087996467 70.5893971852 14.7808999017 7.43100419903 -40.5576120651 18.2312655836 
0.795796 0.720027241613 0.0349633 -6.76742015843 2.50646000557 -90.426001403 -1.22446999718 -58.101700854 -1.72611996424 -2.92923996401 78.4700011477 -4.46439989861 8.183165121 -42.9636247474 18.2926553238 0.288860012501 41.417799259 -2.18371008851 -0.327890995111 3.9637000749 -2.23166996931 75.8648440549 -19.9073052134 1.8291225253 -1.01855003899 24.7155995872 53.871798852 -65.4266416067 -9.18563710813 -22.5485137522 -13.7221001982 16.1793999173 -54.5215001062 -3.41132005172 -57.989699412 -4.33491018412 6.36436002333 82.5002977015 9.85366973631 8.01449445322 -46.4193692033 19.2032920024 
0.769043 0.688873241613 0.0359169 -7.58312958732 3.20366992123 -90.7942032408 0.231044995817 -59.9299990608 -0.684092003753 -8.17040974273 85.8946968133 0.284387012327 8.2632917777 -47.7961645852 19.0486462744 1.60799995339 42.9996983915 -2.37063998637 -0.974124994522 3.03205010583 -1.73338002844 77.5943640659 -14.3416794645 12.2958200958 4.48928014332 18.8299999662 31.9187000104 -68.2363628652 -6.81603744494 -30.5769332536 -12.6044003585 11.2448998693 -38.2678013912 -1.59019994681 -59.5971024709 -2.42725008832 87.2157032101 89.1774018416 -71.2543024406 7.5858548328 -51.8176501949 20.1269828801 
0.744353 0.666499241613 0.0376084 -7.87510992906 3.35998008105 -90.8963009085 1.6707400434 -61.1113007684 1.36462996126 -155.170996961 88.568196779 146.378999876 9.16359779522 -50.6516583564 19.6553344123 2.18953005001 44.5480988613 -2.48022994472 -1.14787999109 1.06584002764 -1.5256499634 77.2518778904 -10.442016255 20.0438133742 7.41720977823 12.4871003972 17.0489000741 -70.281908899 -4.9799186715 -36.0699626295 -15.213500178 -0.398624994444 -26.4075006239 -1.77843003521 -60.5530967283 -2.30840010101 170.98400504 84.6755968389 -154.498004761 7.3583557457 -54.7992736545 20.6395100302 
0.722311 0.654152241613 0.0402783 -8.05504016368 3.08290001043 -90.7220013111 1.40447995292 -61.2756965915 1.95795995672 -173.153997121 84.8814997216 164.191996628 10.4842848807 -52.8174054743 20.3006438549 3.23833996146 45.2709992528 -2.89903003731 -1.80998006637 0.369797994289 -1.368449958 80.1121357185 -17.4099780245 25.2639647398 9.03842006453 18.9077001982 10.9774996708 -73.1510664636 -6.09802960325 -40.416288621 -17.0114996657 -11.7130999454 -20.1642996187 -2.94649003365 -60.3938986791 -2.79271003203 174.42599691 81.2424022526 -157.415000971 6.83042694597 -57.2144456204 20.9742490637 
0.7034 0.654642241613 0.0440942 -7.81185042451 2.96588008693 -90.8510030939 0.985568015981 -60.3770007911 2.09585998196 -174.591997828 83.5530006073 165.859997125 11.9399587023 -55.3217592203 21.152860218 4.49391015781 44.3573009419 -3.10750000394 -2.56740002056 1.58047002217 -0.973063967323 79.3552483057 -15.7560528397 27.0293108006 7.03573005271 18.7208006093 14.7388993609 -77.9200889573 -10.0650709213 -43.3556093039 -17.6096995861 -13.0900003415 -17.841299348 -3.03479007891 -59.2097009714 -2.25973009397 174.940993174 80.2592033517 -157.761004694 5.66738702986 -59.7846662957 21.1438170475 
0.685759 0.663976241613 0.0482806 -6.92717999066 2.95314989497 -91.4549967222 1.51296000553 -59.1727974593 3.17336010301 -174.04399809 84.1376033285 165.256003497 13.0868644309 -57.0704652327 21.8614189199 4.72498015318 42.6069010426 -2.62629994342 -2.58036009107 2.70813991039 -0.495957004386 77.6664362221 -13.1166192962 27.0646587371 3.95230006229 18.5324000863 22.4888008234 -76.7028946056 -7.86770941909 -42.5165103191 -18.2188004883 -12.8984997664 -21.4775998545 -2.35098995902 -57.7960977 -1.02980000088 174.502003255 81.0244031048 -157.250994469 4.57823695396 -61.3859153541 21.098628516 
0.669513 0.677286241613 0.0521465 -5.70344018339 2.74216001543 -92.0920006548 2.15588005585 -58.0659994552 4.64273997982 -172.110999914 85.5075002194 163.069004245 13.7767297588 -57.5298022846 22.1613888754 4.26200986756 41.222500245 -2.09783006465 -2.33523996968 2.50101997334 -0.261151002255 78.50943866 -16.2367871667 27.0075890915 1.1239399646 23.4700992241 30.755600757 -75.6809821926 -6.93481742281 -39.6369264707 -17.885999521 -5.50206998496 -26.2510004994 -1.97551994619 -56.5165983628 -0.0255727001626 173.422997291 82.5075991737 -156.190006543 4.03852138216 -61.7994559876 20.9936758292 
